STARTFONT 2.1
FONT -FontForge-GrapeSoda-Medium-R-Normal--16-160-72-72-P-70-ISO10646-1
SIZE 16 72 72
FONTBOUNDINGBOX 10 12 0 -3
COMMENT "Generated by fontforge, http://fontforge.sourceforge.net"
COMMENT "jeti"
STARTPROPERTIES 39
FOUNDRY "FontForge"
FAMILY_NAME "GrapeSoda"
WEIGHT_NAME "Medium"
SLANT "R"
SETWIDTH_NAME "Normal"
ADD_STYLE_NAME ""
PIXEL_SIZE 16
POINT_SIZE 160
RESOLUTION_X 72
RESOLUTION_Y 72
SPACING "P"
AVERAGE_WIDTH 70
CHARSET_REGISTRY "ISO10646"
CHARSET_ENCODING "1"
FONTNAME_REGISTRY ""
CHARSET_COLLECTIONS "ISO10646-1"
FONT_NAME "GrapeSoda"
FACE_NAME "GrapeSoda"
COPYRIGHT "jeti"
FONT_VERSION "001.000"
FONT_ASCENT 12
FONT_DESCENT 4
UNDERLINE_POSITION -2
UNDERLINE_THICKNESS 1
X_HEIGHT 6
CAP_HEIGHT 8
RAW_ASCENT 750
RAW_DESCENT 250
NORM_SPACE 5
RELATIVE_WEIGHT 50
RELATIVE_SETWIDTH 50
SUPERSCRIPT_X 0
SUPERSCRIPT_Y 7
SUPERSCRIPT_SIZE 11
SUBSCRIPT_X 0
SUBSCRIPT_Y 2
SUBSCRIPT_SIZE 11
AVG_LOWERCASE_WIDTH 70
AVG_UPPERCASE_WIDTH 82
ENDPROPERTIES
CHARS 95
STARTCHAR space
ENCODING 32
SWIDTH 312 0
DWIDTH 5 0
BBX 1 1 0 0
BITMAP
00
ENDCHAR
STARTCHAR exclam
ENCODING 33
SWIDTH 250 0
DWIDTH 4 0
BBX 3 9 0 0
BITMAP
60
60
60
40
C0
C0
00
C0
C0
ENDCHAR
STARTCHAR quotedbl
ENCODING 34
SWIDTH 375 0
DWIDTH 6 0
BBX 5 3 0 6
BITMAP
D8
D8
D8
ENDCHAR
STARTCHAR numbersign
ENCODING 35
SWIDTH 625 0
DWIDTH 10 0
BBX 9 8 0 0
BITMAP
1200
1F00
7F80
3200
3700
FF80
6600
4600
ENDCHAR
STARTCHAR dollar
ENCODING 36
SWIDTH 437 0
DWIDTH 7 0
BBX 6 11 0 -2
BITMAP
30
30
7C
CC
E0
7C
0C
7C
78
30
30
ENDCHAR
STARTCHAR percent
ENCODING 37
SWIDTH 687 0
DWIDTH 11 0
BBX 10 8 0 0
BITMAP
6600
F600
B600
EC00
0D80
1BC0
1B40
1980
ENDCHAR
STARTCHAR ampersand
ENCODING 38
SWIDTH 562 0
DWIDTH 9 0
BBX 8 9 0 -1
BITMAP
70
D8
D8
73
7F
CE
CC
FE
66
ENDCHAR
STARTCHAR quotesingle
ENCODING 39
SWIDTH 187 0
DWIDTH 3 0
BBX 2 3 0 6
BITMAP
C0
C0
C0
ENDCHAR
STARTCHAR parenleft
ENCODING 40
SWIDTH 312 0
DWIDTH 5 0
BBX 4 11 0 -2
BITMAP
30
70
60
C0
C0
C0
C0
C0
60
70
30
ENDCHAR
STARTCHAR parenright
ENCODING 41
SWIDTH 312 0
DWIDTH 5 0
BBX 4 11 0 -2
BITMAP
C0
E0
60
30
30
30
30
30
60
E0
C0
ENDCHAR
STARTCHAR asterisk
ENCODING 42
SWIDTH 500 0
DWIDTH 8 0
BBX 7 7 0 1
BITMAP
30
36
FE
F8
3C
6C
60
ENDCHAR
STARTCHAR plus
ENCODING 43
SWIDTH 437 0
DWIDTH 7 0
BBX 6 6 0 1
BITMAP
20
30
3C
FC
F0
30
ENDCHAR
STARTCHAR comma
ENCODING 44
SWIDTH 187 0
DWIDTH 3 0
BBX 2 3 0 -1
BITMAP
C0
C0
80
ENDCHAR
STARTCHAR hyphen
ENCODING 45
SWIDTH 312 0
DWIDTH 5 0
BBX 4 3 0 2
BITMAP
30
F0
C0
ENDCHAR
STARTCHAR period
ENCODING 46
SWIDTH 187 0
DWIDTH 3 0
BBX 2 2 0 0
BITMAP
C0
C0
ENDCHAR
STARTCHAR slash
ENCODING 47
SWIDTH 375 0
DWIDTH 6 0
BBX 5 10 0 -2
BITMAP
18
18
18
30
30
60
60
60
C0
C0
ENDCHAR
STARTCHAR zero
ENCODING 48
SWIDTH 437 0
DWIDTH 7 0
BBX 6 8 0 0
BITMAP
38
7C
EC
CC
CC
DC
F8
70
ENDCHAR
STARTCHAR one
ENCODING 49
SWIDTH 312 0
DWIDTH 5 0
BBX 4 8 0 0
BITMAP
30
70
F0
20
60
60
F0
F0
ENDCHAR
STARTCHAR two
ENCODING 50
SWIDTH 437 0
DWIDTH 7 0
BBX 6 8 0 0
BITMAP
38
7C
EC
4C
18
70
FC
FC
ENDCHAR
STARTCHAR three
ENCODING 51
SWIDTH 437 0
DWIDTH 7 0
BBX 6 8 0 0
BITMAP
F8
F8
10
38
0C
6C
7C
38
ENDCHAR
STARTCHAR four
ENCODING 52
SWIDTH 437 0
DWIDTH 7 0
BBX 6 8 0 0
BITMAP
0C
0C
D8
DC
FC
F8
18
18
ENDCHAR
STARTCHAR five
ENCODING 53
SWIDTH 437 0
DWIDTH 7 0
BBX 6 8 0 0
BITMAP
78
78
C0
F8
FC
0C
78
70
ENDCHAR
STARTCHAR six
ENCODING 54
SWIDTH 500 0
DWIDTH 8 0
BBX 7 8 0 0
BITMAP
30
70
E0
DC
FE
E6
7E
3C
ENDCHAR
STARTCHAR seven
ENCODING 55
SWIDTH 437 0
DWIDTH 7 0
BBX 6 8 0 0
BITMAP
1C
FC
FC
18
18
30
30
30
ENDCHAR
STARTCHAR eight
ENCODING 56
SWIDTH 437 0
DWIDTH 7 0
BBX 6 8 0 0
BITMAP
70
F8
D8
F8
7C
CC
FC
78
ENDCHAR
STARTCHAR nine
ENCODING 57
SWIDTH 437 0
DWIDTH 7 0
BBX 6 8 0 0
BITMAP
38
7C
CC
FC
78
18
30
30
ENDCHAR
STARTCHAR colon
ENCODING 58
SWIDTH 187 0
DWIDTH 3 0
BBX 2 6 0 0
BITMAP
C0
C0
00
00
C0
C0
ENDCHAR
STARTCHAR semicolon
ENCODING 59
SWIDTH 187 0
DWIDTH 3 0
BBX 2 7 0 -1
BITMAP
C0
C0
00
00
C0
C0
80
ENDCHAR
STARTCHAR less
ENCODING 60
SWIDTH 437 0
DWIDTH 7 0
BBX 6 6 0 1
BITMAP
1C
7C
E0
70
3C
0C
ENDCHAR
STARTCHAR equal
ENCODING 61
SWIDTH 375 0
DWIDTH 6 0
BBX 5 5 0 2
BITMAP
F0
F0
00
F8
78
ENDCHAR
STARTCHAR greater
ENCODING 62
SWIDTH 437 0
DWIDTH 7 0
BBX 6 6 0 1
BITMAP
C0
F0
38
1C
F8
E0
ENDCHAR
STARTCHAR question
ENCODING 63
SWIDTH 437 0
DWIDTH 7 0
BBX 6 9 0 0
BITMAP
38
FC
CC
1C
38
30
00
30
30
ENDCHAR
STARTCHAR at
ENCODING 64
SWIDTH 687 0
DWIDTH 11 0
BBX 10 10 0 -2
BITMAP
1E00
3F00
6180
C6C0
CEC0
CBC0
CF80
6000
3C00
1800
ENDCHAR
STARTCHAR A
ENCODING 65
SWIDTH 625 0
DWIDTH 10 0
BBX 9 9 0 -1
BITMAP
1C00
1C00
3600
3600
7F00
6700
E380
C380
0100
ENDCHAR
STARTCHAR B
ENCODING 66
SWIDTH 500 0
DWIDTH 8 0
BBX 7 8 0 0
BITMAP
F0
D8
D8
F8
CC
CE
7E
7C
ENDCHAR
STARTCHAR C
ENCODING 67
SWIDTH 500 0
DWIDTH 8 0
BBX 7 8 0 0
BITMAP
3C
7E
E6
C0
C6
CE
FC
78
ENDCHAR
STARTCHAR D
ENCODING 68
SWIDTH 500 0
DWIDTH 8 0
BBX 7 8 0 0
BITMAP
78
7C
6E
E6
C6
CE
FC
F8
ENDCHAR
STARTCHAR E
ENCODING 69
SWIDTH 500 0
DWIDTH 8 0
BBX 7 9 0 -1
BITMAP
7C
7C
60
78
F8
E0
F0
FE
1E
ENDCHAR
STARTCHAR F
ENCODING 70
SWIDTH 437 0
DWIDTH 7 0
BBX 6 8 0 0
BITMAP
7C
7C
60
78
F8
E0
C0
C0
ENDCHAR
STARTCHAR G
ENCODING 71
SWIDTH 562 0
DWIDTH 9 0
BBX 8 8 0 0
BITMAP
3C
7C
E0
CF
CF
C6
FE
7C
ENDCHAR
STARTCHAR H
ENCODING 72
SWIDTH 562 0
DWIDTH 9 0
BBX 8 9 0 0
BITMAP
03
63
63
67
7F
FF
E6
C6
C6
ENDCHAR
STARTCHAR I
ENCODING 73
SWIDTH 375 0
DWIDTH 6 0
BBX 5 8 0 0
BITMAP
78
78
30
30
60
60
F0
F0
ENDCHAR
STARTCHAR J
ENCODING 74
SWIDTH 437 0
DWIDTH 7 0
BBX 6 8 0 0
BITMAP
1C
1C
0C
0C
0C
CC
FC
78
ENDCHAR
STARTCHAR K
ENCODING 75
SWIDTH 500 0
DWIDTH 8 0
BBX 7 8 0 0
BITMAP
CC
DC
F8
F0
78
7C
6E
66
ENDCHAR
STARTCHAR L
ENCODING 76
SWIDTH 437 0
DWIDTH 7 0
BBX 6 8 0 0
BITMAP
60
60
60
E0
CC
FC
FC
E0
ENDCHAR
STARTCHAR M
ENCODING 77
SWIDTH 687 0
DWIDTH 11 0
BBX 10 8 0 0
BITMAP
60C0
71C0
7BC0
7FC0
EEC0
E4C0
C0C0
C0C0
ENDCHAR
STARTCHAR N
ENCODING 78
SWIDTH 562 0
DWIDTH 9 0
BBX 8 9 0 0
BITMAP
0C
CC
EE
E6
F6
FF
DF
CF
C6
ENDCHAR
STARTCHAR O
ENCODING 79
SWIDTH 500 0
DWIDTH 8 0
BBX 7 8 0 0
BITMAP
38
7C
EC
C6
C6
E6
7E
3C
ENDCHAR
STARTCHAR P
ENCODING 80
SWIDTH 500 0
DWIDTH 8 0
BBX 7 8 0 0
BITMAP
FC
FE
C6
CE
FC
60
70
70
ENDCHAR
STARTCHAR Q
ENCODING 81
SWIDTH 500 0
DWIDTH 8 0
BBX 7 10 0 -2
BITMAP
18
7C
E6
C6
D6
DC
F8
7C
0E
04
ENDCHAR
STARTCHAR R
ENCODING 82
SWIDTH 500 0
DWIDTH 8 0
BBX 7 9 0 -1
BITMAP
7C
7E
66
6E
7C
F8
DC
CE
C4
ENDCHAR
STARTCHAR S
ENCODING 83
SWIDTH 437 0
DWIDTH 7 0
BBX 6 8 0 0
BITMAP
78
FC
CC
70
38
CC
FC
78
ENDCHAR
STARTCHAR T
ENCODING 84
SWIDTH 500 0
DWIDTH 8 0
BBX 7 8 0 0
BITMAP
0E
FE
F8
30
30
18
18
18
ENDCHAR
STARTCHAR U
ENCODING 85
SWIDTH 500 0
DWIDTH 8 0
BBX 7 8 0 0
BITMAP
60
66
E6
C6
C6
EE
FC
78
ENDCHAR
STARTCHAR V
ENCODING 86
SWIDTH 500 0
DWIDTH 8 0
BBX 7 8 0 0
BITMAP
06
C6
CC
EC
78
78
30
30
ENDCHAR
STARTCHAR W
ENCODING 87
SWIDTH 625 0
DWIDTH 10 0
BBX 9 8 0 0
BITMAP
C180
C180
DB80
FB00
FF00
7F00
6600
6600
ENDCHAR
STARTCHAR X
ENCODING 88
SWIDTH 562 0
DWIDTH 9 0
BBX 8 9 0 0
BITMAP
02
47
EE
7C
38
38
7C
EE
44
ENDCHAR
STARTCHAR Y
ENCODING 89
SWIDTH 562 0
DWIDTH 9 0
BBX 8 8 0 0
BITMAP
42
C7
EE
7C
38
30
70
60
ENDCHAR
STARTCHAR Z
ENCODING 90
SWIDTH 500 0
DWIDTH 8 0
BBX 7 8 0 0
BITMAP
3E
FE
EC
1C
38
70
FE
FE
ENDCHAR
STARTCHAR bracketleft
ENCODING 91
SWIDTH 312 0
DWIDTH 5 0
BBX 4 11 0 -2
BITMAP
F0
F0
C0
C0
C0
C0
C0
C0
F0
F0
C0
ENDCHAR
STARTCHAR backslash
ENCODING 92
SWIDTH 375 0
DWIDTH 6 0
BBX 5 10 0 -2
BITMAP
C0
C0
60
60
60
30
30
18
18
18
ENDCHAR
STARTCHAR bracketright
ENCODING 93
SWIDTH 312 0
DWIDTH 5 0
BBX 4 11 0 -2
BITMAP
F0
F0
30
30
30
30
30
30
30
F0
F0
ENDCHAR
STARTCHAR asciicircum
ENCODING 94
SWIDTH 437 0
DWIDTH 7 0
BBX 6 5 0 4
BITMAP
10
38
78
DC
08
ENDCHAR
STARTCHAR underscore
ENCODING 95
SWIDTH 437 0
DWIDTH 7 0
BBX 6 2 0 -3
BITMAP
FC
F8
ENDCHAR
STARTCHAR grave
ENCODING 96
SWIDTH 250 0
DWIDTH 4 0
BBX 3 3 0 6
BITMAP
C0
C0
60
ENDCHAR
STARTCHAR a
ENCODING 97
SWIDTH 500 0
DWIDTH 8 0
BBX 7 7 0 0
BITMAP
1C
36
06
7E
CE
FE
76
ENDCHAR
STARTCHAR b
ENCODING 98
SWIDTH 500 0
DWIDTH 8 0
BBX 7 8 0 0
BITMAP
C0
C0
C0
DC
7E
66
7E
7C
ENDCHAR
STARTCHAR c
ENCODING 99
SWIDTH 375 0
DWIDTH 6 0
BBX 5 7 0 0
BITMAP
70
78
D8
C0
E0
78
38
ENDCHAR
STARTCHAR d
ENCODING 100
SWIDTH 500 0
DWIDTH 8 0
BBX 7 8 0 0
BITMAP
18
18
0C
7C
EC
CE
FE
76
ENDCHAR
STARTCHAR e
ENCODING 101
SWIDTH 437 0
DWIDTH 7 0
BBX 6 7 0 0
BITMAP
38
7C
CC
FC
E0
78
38
ENDCHAR
STARTCHAR f
ENCODING 102
SWIDTH 375 0
DWIDTH 6 0
BBX 5 8 0 0
BITMAP
38
78
60
F8
F8
60
30
30
ENDCHAR
STARTCHAR g
ENCODING 103
SWIDTH 437 0
DWIDTH 7 0
BBX 6 10 0 -3
BITMAP
34
7C
EC
CC
EC
7C
38
18
F8
F0
ENDCHAR
STARTCHAR h
ENCODING 104
SWIDTH 437 0
DWIDTH 7 0
BBX 6 8 0 0
BITMAP
60
60
60
78
7C
EC
CC
CC
ENDCHAR
STARTCHAR i
ENCODING 105
SWIDTH 250 0
DWIDTH 4 0
BBX 3 8 0 0
BITMAP
60
60
00
60
60
40
C0
C0
ENDCHAR
STARTCHAR j
ENCODING 106
SWIDTH 312 0
DWIDTH 5 0
BBX 4 11 0 -3
BITMAP
60
60
00
60
60
60
30
30
70
E0
C0
ENDCHAR
STARTCHAR k
ENCODING 107
SWIDTH 437 0
DWIDTH 7 0
BBX 6 8 0 0
BITMAP
C0
C0
D8
78
70
78
7C
6C
ENDCHAR
STARTCHAR l
ENCODING 108
SWIDTH 250 0
DWIDTH 4 0
BBX 3 8 0 0
BITMAP
60
60
60
60
40
C0
E0
60
ENDCHAR
STARTCHAR m
ENCODING 109
SWIDTH 625 0
DWIDTH 10 0
BBX 9 7 0 0
BITMAP
B000
FF00
FF80
D980
D980
D980
C180
ENDCHAR
STARTCHAR n
ENCODING 110
SWIDTH 500 0
DWIDTH 8 0
BBX 7 7 0 0
BITMAP
DC
FE
E6
66
66
6C
6C
ENDCHAR
STARTCHAR o
ENCODING 111
SWIDTH 437 0
DWIDTH 7 0
BBX 6 7 0 0
BITMAP
38
7C
EC
CC
CC
F8
70
ENDCHAR
STARTCHAR p
ENCODING 112
SWIDTH 500 0
DWIDTH 8 0
BBX 7 10 0 -3
BITMAP
DC
FE
F6
E6
E6
7C
78
60
60
60
ENDCHAR
STARTCHAR q
ENCODING 113
SWIDTH 437 0
DWIDTH 7 0
BBX 6 10 0 -3
BITMAP
3C
7C
EC
CC
DC
F8
78
18
18
10
ENDCHAR
STARTCHAR r
ENCODING 114
SWIDTH 437 0
DWIDTH 7 0
BBX 6 7 0 0
BITMAP
58
FC
EC
60
70
30
30
ENDCHAR
STARTCHAR s
ENCODING 115
SWIDTH 437 0
DWIDTH 7 0
BBX 6 7 0 0
BITMAP
3C
7C
60
38
4C
FC
78
ENDCHAR
STARTCHAR t
ENCODING 116
SWIDTH 375 0
DWIDTH 6 0
BBX 5 8 0 0
BITMAP
30
30
F8
F8
60
60
78
38
ENDCHAR
STARTCHAR u
ENCODING 117
SWIDTH 500 0
DWIDTH 8 0
BBX 7 7 0 0
BITMAP
60
6C
CC
CC
DC
FE
76
ENDCHAR
STARTCHAR v
ENCODING 118
SWIDTH 500 0
DWIDTH 8 0
BBX 7 7 0 0
BITMAP
06
CE
EC
7C
78
38
30
ENDCHAR
STARTCHAR w
ENCODING 119
SWIDTH 562 0
DWIDTH 9 0
BBX 8 7 0 0
BITMAP
03
DB
DB
DB
7E
7E
34
ENDCHAR
STARTCHAR x
ENCODING 120
SWIDTH 500 0
DWIDTH 8 0
BBX 7 7 0 0
BITMAP
0C
DC
F8
78
3C
7E
66
ENDCHAR
STARTCHAR y
ENCODING 121
SWIDTH 437 0
DWIDTH 7 0
BBX 6 10 0 -3
BITMAP
0C
CC
CC
EC
7C
38
18
18
70
60
ENDCHAR
STARTCHAR z
ENCODING 122
SWIDTH 437 0
DWIDTH 7 0
BBX 6 7 0 0
BITMAP
3C
FC
D8
30
60
FC
FC
ENDCHAR
STARTCHAR braceleft
ENCODING 123
SWIDTH 375 0
DWIDTH 6 0
BBX 5 11 0 -2
BITMAP
18
38
20
30
70
E0
70
30
20
38
18
ENDCHAR
STARTCHAR bar
ENCODING 124
SWIDTH 187 0
DWIDTH 3 0
BBX 2 10 0 -2
BITMAP
C0
C0
C0
C0
C0
C0
C0
C0
C0
C0
ENDCHAR
STARTCHAR braceright
ENCODING 125
SWIDTH 375 0
DWIDTH 6 0
BBX 5 11 0 -2
BITMAP
C0
E0
20
60
70
38
70
60
20
E0
C0
ENDCHAR
STARTCHAR asciitilde
ENCODING 126
SWIDTH 562 0
DWIDTH 9 0
BBX 8 3 0 3
BITMAP
73
FF
CE
ENDCHAR
ENDFONT
